<svg id="Layer_1" data-name="Layer 1" xmlns="http://www.w3.org/2000/svg" viewBox="0 0 400 300"><path d="M130.43,63.9C72,92,51.49,168.22,87.91,223.05c16.36,24.63,45.51,45.25,97.21,45.57,145.72.92,161.89-71.71,155.36-131.33C333.69,75.34,211.36,25,130.43,63.9Z" fill="#e6e6e6" opacity="0.3"/><rect x="88.32" y="48.58" width="104.07" height="171.71" fill="#e6e6e6"/><rect x="217.08" y="84.32" width="104.07" height="171.71" fill="#e6e6e6"/><path d="M88.32,122.15l1.59.7a107.48,107.48,0,0,0,102.49-8.19h0V48.58H88.32Z" fill="#fff" opacity="0.66"/><line x1="225.77" y1="91.51" x2="233.61" y2="91.51" fill="none" stroke="#a8a8a8" stroke-miterlimit="10"/><line x1="225.77" y1="95.3" x2="233.61" y2="95.3" fill="none" stroke="#a8a8a8" stroke-miterlimit="10"/><line x1="225.77" y1="99.09" x2="233.61" y2="99.09" fill="none" stroke="#a8a8a8" stroke-miterlimit="10"/><line x1="96.74" y1="56.91" x2="104.58" y2="56.91" fill="none" stroke="#a8a8a8" stroke-miterlimit="10"/><line x1="96.74" y1="60.7" x2="104.58" y2="60.7" fill="none" stroke="#a8a8a8" stroke-miterlimit="10"/><line x1="96.74" y1="64.49" x2="104.58" y2="64.49" fill="none" stroke="#a8a8a8" stroke-miterlimit="10"/><rect x="254.53" y="92.87" width="30.98" height="4.77" fill="#a8a8a8"/><rect x="126.82" y="58.32" width="30.98" height="4.77" fill="#a8a8a8" opacity="0.32"/><rect x="217.08" y="109.55" width="104.07" height="128" fill="#fff" opacity="0.3"/><rect x="229.69" y="125.55" width="29.44" height="8.88" fill="#c1c1c1"/><rect x="109.82" y="146.1" width="63.26" height="8.88" fill="#c1c1c1"/><rect x="116.97" y="163.74" width="49.09" height="8.88" fill="#c1c1c1" opacity="0.51"/><rect x="269.01" y="125.55" width="41.44" height="8.88" fill="#fff"/><rect x="229.69" y="198.06" width="29.44" height="8.88" fill="#c1c1c1"/><rect x="269.01" y="198.06" width="41.44" height="8.88" fill="#fff"/><rect x="229.69" y="143.87" width="29.44" height="8.88" fill="#c1c1c1"/><rect x="269.01" y="143.87" width="33.36" height="8.88" fill="#fff"/><rect x="229.69" y="162.13" width="20.25" height="8.88" fill="#c1c1c1"/><rect x="269.01" y="162.13" width="41.44" height="8.88" fill="#fff"/><rect x="229.69" y="179.67" width="20.25" height="8.88" fill="#c1c1c1"/><rect x="269.01" y="179.67" width="28.25" height="8.88" fill="#fff"/><rect x="244.41" y="216.36" width="50.98" height="13.79" fill="#ffd200"/><rect x="116.46" y="187" width="50.98" height="13.79" fill="#ffd200"/><path d="M132.9,101.59s-14.39-3.93-17.52-17.32c0,0,22.3-4.51,22.93,18.5Z" fill="#1378ef" opacity="0.58"/><path d="M134.66,100.16s-10-15.89-1.2-30.75c0,0,16.95,10.76,9.42,30.79Z" fill="#1378ef" opacity="0.73"/><ellipse cx="139.09" cy="120.11" rx="25.32" ry="5.45" opacity="0.08"/><path d="M137.25,100.17s5.32-16.78,21.37-20c0,0,3,10.9-10.39,20Z" fill="#1378ef"/><polygon points="126.82 99.8 129.74 119.75 148.11 119.83 150.82 99.89 126.82 99.8" fill="#24285b"/></svg>